Coordinates
version=1
nRows=126
nColumns=11
inDegrees=no

Units are S.I. units (second, meters, Newtons, ...)
If the header above contains a line with 'inDegrees', this indicates whether rotational values are in degrees (yes) or radians (no).

endheader
time	pelvis_tilt	pelvis_tx	pelvis_ty	hip_flexion_r	knee_angle_r	ankle_angle_r	hip_flexion_l	knee_angle_l	ankle_angle_l	lumbar_extension
0.01	0.0524234	0.0444679	0.942059	-0.0316422	-0.220212	0.281821	-0.0629041	-0.149251	0.256483	0
0.02	0.0533172	0.0438806	0.942048	-0.028121	-0.228274	0.284049	-0.0621146	-0.15123	0.256457	0
0.03	0.0524056	0.0433534	0.942026	-0.0270415	-0.226799	0.282945	-0.0605882	-0.151164	0.255636	0
0.04	0.0514655	0.0427927	0.941992	-0.0261206	-0.224636	0.282873	-0.0583226	-0.152369	0.255711	0
0.05	0.0510583	0.0419642	0.942042	-0.0236962	-0.226491	0.282408	-0.0561945	-0.15359	0.25547	0
0.06	0.0507799	0.0414439	0.942061	-0.020991	-0.230502	0.281769	-0.0554558	-0.153107	0.254979	0
0.07	0.0502137	0.0408487	0.942036	-0.0188829	-0.232218	0.281433	-0.0542598	-0.152777	0.254143	0
0.08	0.0493493	0.0401666	0.942017	-0.0172254	-0.231763	0.280632	-0.0523533	-0.153105	0.253445	0
0.09	0.0488348	0.039575	0.94203	-0.0156303	-0.232046	0.280579	-0.0511144	-0.153028	0.252478	0
0.1	0.0487315	0.0390401	0.942096	-0.0150922	-0.231863	0.27961	-0.0509155	-0.15197	0.251089	0
0.11	0.0500365	0.0387215	0.942227	-0.0162645	-0.231836	0.278817	-0.052947	-0.149883	0.249864	0
0.12	0.0509776	0.0385539	0.942321	-0.017176	-0.231624	0.278707	-0.0546994	-0.147899	0.249206	0
0.13	0.0504771	0.0382325	0.942299	-0.0160534	-0.232007	0.278564	-0.0548059	-0.146019	0.247634	0
0.14	0.0493654	0.0375443	0.942289	-0.0129504	-0.233892	0.278346	-0.0539383	-0.143881	0.245862	0
0.15	0.0493469	0.0366711	0.942294	-0.0101928	-0.236702	0.279368	-0.052526	-0.144433	0.246274	0
0.16	0.0502947	0.036217	0.942328	-0.00959717	-0.238923	0.279731	-0.0523923	-0.145647	0.247157	0
0.17	0.0515248	0.0358387	0.942418	-0.0096899	-0.24099	0.279396	-0.0529026	-0.146486	0.24647	0
0.18	0.0514017	0.0353166	0.942435	-0.00953857	-0.239962	0.27802	-0.0519859	-0.146929	0.24532	0
0.19	0.0507597	0.0347106	0.942378	-0.00827373	-0.239628	0.277813	-0.0501637	-0.147613	0.245238	0
0.2	0.0500174	0.0341971	0.942326	-0.00666101	-0.239888	0.277561	-0.0480947	-0.148726	0.245584	0
0.21	0.0497547	0.0339097	0.942319	-0.00632469	-0.239257	0.276785	-0.046958	-0.149587	0.245743	0
0.22	0.0500426	0.033743	0.942359	-0.00721628	-0.237649	0.275367	-0.0468409	-0.149966	0.245557	0
0.23	0.0504103	0.0334519	0.9424	-0.00808496	-0.236012	0.274511	-0.0466329	-0.150606	0.245806	0
0.24	0.050108	0.0329882	0.942395	-0.00816848	-0.234126	0.274188	-0.045169	-0.151806	0.245592	0
0.25	0.0494232	0.0324873	0.942292	-0.00649992	-0.234883	0.274669	-0.0430073	-0.153618	0.245682	0
0.26	0.0487735	0.0320307	0.942194	-0.00383651	-0.237679	0.275355	-0.0410725	-0.155102	0.245892	0
0.27	0.0485393	0.031639	0.942187	-0.00200707	-0.239751	0.275622	-0.0398829	-0.155842	0.246181	0
0.28	0.0486	0.0310948	0.942193	-0.000902754	-0.240604	0.275268	-0.0386812	-0.15696	0.246727	0
0.29	0.0484929	0.0306285	0.942255	-0.000335264	-0.240355	0.273847	-0.0373582	-0.1582	0.246632	0
0.3	0.0482806	0.0303487	0.942278	0.000145332	-0.240281	0.272675	-0.0364613	-0.158854	0.24588	0
0.31	0.0483715	0.0301785	0.942265	0.000357153	-0.240434	0.272177	-0.0362952	-0.159079	0.246247	0
0.32	0.0487085	0.0299648	0.942265	0.000804466	-0.241284	0.274216	-0.0362191	-0.159332	0.246405	0
0.33	0.0491333	0.0295961	0.94225	0.00172405	-0.242552	0.276079	-0.0356011	-0.160582	0.246395	0
0.34	0.0492069	0.0293188	0.942236	0.00351369	-0.245317	0.276775	-0.034864	-0.16177	0.246638	0
0.35	0.0483007	0.0291459	0.942295	0.0043421	-0.244842	0.275669	-0.0339142	-0.161425	0.245713	0
0.36	0.0472075	0.0288425	0.942334	0.00521195	-0.243848	0.274481	-0.0326591	-0.160914	0.244714	0
0.37	0.0467637	0.0285954	0.94216	0.00722026	-0.246563	0.277142	-0.0320298	-0.161103	0.245301	0
0.38	0.0459222	0.0284995	0.942029	0.00816261	-0.247532	0.278415	-0.0317494	-0.160767	0.244864	0
0.39	0.047046	0.0283186	0.9421	0.00560998	-0.246539	0.277397	-0.0347357	-0.158524	0.243022	0
0.4	0.0497991	0.0279912	0.942124	0.00328183	-0.250251	0.277118	-0.0392228	-0.156798	0.242184	0
0.41	0.0490884	0.0277685	0.941995	0.00295617	-0.25011	0.276575	-0.0396537	-0.156313	0.242305	0
0.42	0.0482764	0.0277453	0.941889	0.00010013	-0.244006	0.277418	-0.0401766	-0.155812	0.243355	0
0.43	0.0472087	0.0277237	0.941758	-0.00154388	-0.240213	0.278035	-0.0396152	-0.15678	0.244688	0
0.44	0.0463224	0.027703	0.941659	-0.00101686	-0.242378	0.277952	-0.0390026	-0.158206	0.246378	0
0.45	0.0463952	0.0276872	0.941726	-0.00432123	-0.238066	0.275301	-0.0410779	-0.156164	0.246556	0
0.46	0.0458193	0.0275182	0.941704	-0.00760816	-0.231632	0.272562	-0.0432777	-0.152209	0.244701	0
0.47	0.0440684	0.0270647	0.941279	-0.00593813	-0.231908	0.274137	-0.0427844	-0.150426	0.245618	0
0.48	0.0431229	0.0267365	0.940871	-0.00421077	-0.234214	0.277655	-0.0428061	-0.149848	0.247808	0
0.49	0.0418526	0.026534	0.940664	-0.00582743	-0.230689	0.277544	-0.0420675	-0.150737	0.250499	0
0.5	0.0422185	0.0262773	0.940624	-0.0109344	-0.223856	0.274347	-0.0431743	-0.151317	0.251411	0
0.51	0.0419688	0.0262781	0.940616	-0.011799	-0.224278	0.273128	-0.0447444	-0.149649	0.250146	0
0.52	0.0411795	0.0264605	0.94062	-0.0102714	-0.228061	0.273164	-0.0459356	-0.147931	0.249207	0
0.53	0.0413262	0.0264503	0.940786	-0.0133965	-0.22423	0.271739	-0.0478435	-0.146641	0.247396	0
0.54	0.0406026	0.0260833	0.940867	-0.0153139	-0.220115	0.271149	-0.0487148	-0.145456	0.244809	0
0.55	0.0394065	0.0254854	0.94089	-0.0155279	-0.217651	0.270868	-0.0480626	-0.14576	0.243483	0
0.56	0.0383861	0.0249149	0.94096	-0.0159107	-0.21573	0.269211	-0.0472867	-0.146428	0.241295	0
0.57	0.0375105	0.0242796	0.941137	-0.0160935	-0.215064	0.266963	-0.0470973	-0.146195	0.2387	0
0.58	0.03754	0.0232462	0.941309	-0.0151825	-0.217181	0.266337	-0.0465736	-0.147833	0.238252	0
0.59	0.0369993	0.0224829	0.941441	-0.0145658	-0.217623	0.265408	-0.0463715	-0.148062	0.238062	0
0.6	0.0359553	0.0217837	0.941485	-0.0136726	-0.218279	0.263873	-0.046821	-0.145895	0.235807	0
0.61	0.0344551	0.0209585	0.941488	-0.0122684	-0.219293	0.262992	-0.045823	-0.145656	0.234384	0
0.62	0.0326958	0.020147	0.941478	-0.0114443	-0.217988	0.261235	-0.0445837	-0.14513	0.234481	0
0.63	0.0315194	0.0192859	0.941498	-0.0124381	-0.21362	0.256984	-0.0431022	-0.146013	0.235023	0
0.64	0.0301904	0.018348	0.941487	-0.0130311	-0.209835	0.253072	-0.0413738	-0.147353	0.232786	0
0.65	0.0282693	0.0173521	0.941466	-0.0122396	-0.207938	0.252005	-0.0395503	-0.147913	0.230898	0
0.66	0.0262721	0.0164612	0.941455	-0.0109408	-0.207426	0.251407	-0.0375095	-0.148901	0.230652	0
0.67	0.0249383	0.0154067	0.941428	-0.00967667	-0.208161	0.251204	-0.0364857	-0.149118	0.230075	0
0.68	0.0234253	0.0141417	0.941402	-0.00862744	-0.207889	0.250464	-0.036518	-0.146278	0.227947	0
0.69	0.0216902	0.012798	0.941436	-0.00790994	-0.206286	0.249622	-0.0353322	-0.145009	0.225961	0
0.7	0.0190046	0.0114371	0.94144	-0.00608652	-0.204424	0.247819	-0.0318625	-0.145908	0.224107	0
0.71	0.0149805	0.00972067	0.941353	-0.00107604	-0.204835	0.244351	-0.0272088	-0.145815	0.222439	0
0.72	0.0102933	0.00740936	0.941177	0.00596436	-0.20665	0.243094	-0.021583	-0.145064	0.219242	0
0.73	0.0074188	0.00530797	0.941134	0.0110686	-0.209166	0.243332	-0.0170285	-0.146564	0.219516	0
0.74	0.00615594	0.00409877	0.941223	0.0127844	-0.210508	0.242218	-0.0167407	-0.144484	0.219692	0
0.75	0.00324144	0.0025356	0.941262	0.0158678	-0.209808	0.238733	-0.0146624	-0.141678	0.217987	0
0.76	-0.00349057	0.000403082	0.940974	0.0245739	-0.211433	0.234909	-0.00537257	-0.144864	0.217347	0
0.77	-0.038374	0.00740976	0.938675	0.042799	-0.198668	0.235969	0.0128684	-0.13191	0.219118	0
0.78	-0.00846154	-0.00400587	0.940772	0.0314668	-0.213328	0.232624	0.00123523	-0.145523	0.21447	0
0.79	-0.0468808	0.00290117	0.938373	0.0526577	-0.197545	0.232672	0.0224612	-0.130181	0.211449	0
0.8	-0.0496426	0.000917563	0.938232	0.0555333	-0.196321	0.228811	0.0244467	-0.127447	0.206946	0
0.81	-0.0521672	-0.00090891	0.93808	0.0580677	-0.196298	0.226584	0.0266341	-0.126037	0.205077	0
0.82	-0.0544501	-0.00276824	0.937941	0.0607457	-0.197488	0.226222	0.0291151	-0.126026	0.204342	0
0.83	-0.0567207	-0.00461669	0.937738	0.0620481	-0.195857	0.223581	0.0314432	-0.125801	0.205217	0
0.84	-0.0589839	-0.0065236	0.937461	0.0643476	-0.195499	0.223238	0.033739	-0.125804	0.206345	0
0.85	-0.0617707	-0.00877785	0.937061	0.0683071	-0.19607	0.225232	0.0359234	-0.123455	0.205578	0
0.86	-0.063153	-0.010789	0.936647	0.0706926	-0.197681	0.228533	0.0371254	-0.123137	0.204005	0
0.87	-0.0620698	-0.0121984	0.936554	0.0675396	-0.196028	0.229051	0.0332051	-0.120042	0.203238	0
0.88	-0.0642898	-0.0143534	0.936284	0.0711178	-0.198706	0.229099	0.0348814	-0.118743	0.203294	0
0.89	-0.0674536	-0.0167799	0.93597	0.0756008	-0.199892	0.230101	0.0378563	-0.116935	0.202735	0
0.9	-0.0715466	-0.0199333	0.935509	0.0811998	-0.199333	0.22909	0.0448266	-0.118939	0.203168	0
0.91	-0.0741598	-0.0226515	0.935088	0.0846205	-0.199048	0.229338	0.0493124	-0.120253	0.203567	0
0.92	-0.0765918	-0.0251888	0.934645	0.0885219	-0.200536	0.230528	0.0522495	-0.119441	0.202604	0
0.93	-0.0785178	-0.0275889	0.93432	0.0892418	-0.197605	0.228415	0.0550622	-0.120217	0.201068	0
0.94	-0.0809676	-0.0303137	0.934034	0.0899843	-0.192617	0.22662	0.0591654	-0.122015	0.201335	0
0.95	-0.0834627	-0.0330279	0.933719	0.0928518	-0.191276	0.227702	0.0641472	-0.125543	0.202182	0
0.96	-0.0859561	-0.0356717	0.933487	0.0969868	-0.193141	0.22901	0.0685012	-0.127807	0.201683	0
0.97	-0.0880097	-0.0383101	0.933243	0.100201	-0.19427	0.228891	0.0713061	-0.127965	0.199876	0
0.98	-0.0896264	-0.0407644	0.932922	0.101086	-0.191928	0.227231	0.0741242	-0.12932	0.200114	0
0.99	-0.0915191	-0.0435873	0.932536	0.103762	-0.191947	0.226194	0.0777065	-0.131279	0.203363	0
1	-0.093107	-0.0464532	0.932172	0.106892	-0.194167	0.225836	0.0809073	-0.13338	0.204977	0
1.01	-0.0933046	-0.0487238	0.931893	0.107074	-0.194818	0.226252	0.0799747	-0.131563	0.202943	0
1.02	-0.09304	-0.0508415	0.931629	0.105865	-0.193564	0.229142	0.0791029	-0.131189	0.202585	0
1.03	-0.0933977	-0.0534251	0.931311	0.105482	-0.19168	0.230742	0.0799306	-0.131815	0.203486	0
1.04	-0.0935001	-0.0559002	0.931031	0.10436	-0.189534	0.231703	0.0794648	-0.130971	0.205498	0
1.05	-0.0928175	-0.058114	0.930774	0.102642	-0.188656	0.231039	0.0786734	-0.131625	0.207001	0
1.06	-0.100609	-0.0595832	0.930585	0.102493	-0.168779	0.228487	0.0808673	-0.116164	0.204284	0
1.07	-0.102154	-0.0629284	0.929933	0.105083	-0.170449	0.231368	0.0836648	-0.11771	0.205437	0
1.08	-0.10486	-0.0660944	0.929087	0.111672	-0.175014	0.234087	0.0881183	-0.117753	0.205193	0
1.09	-0.107037	-0.0696491	0.92827	0.118429	-0.18204	0.237552	0.0937818	-0.121805	0.208749	0
1.1	-0.108701	-0.0729404	0.927557	0.123817	-0.187599	0.240758	0.0984622	-0.126248	0.214396	0
1.11	-0.109573	-0.0761882	0.926848	0.127809	-0.191887	0.245212	0.102097	-0.130187	0.217813	0
1.12	-0.110394	-0.0795335	0.926109	0.131521	-0.195316	0.248685	0.104999	-0.132347	0.220076	0
1.13	-0.110934	-0.0826174	0.925493	0.135385	-0.200786	0.251921	0.108783	-0.137561	0.223568	0
1.14	-0.110724	-0.0853941	0.925135	0.137209	-0.205303	0.254549	0.111252	-0.142858	0.225307	0
1.15	-0.110351	-0.0883869	0.924697	0.139631	-0.210519	0.257991	0.111919	-0.14469	0.225047	0
1.16	-0.109209	-0.0915054	0.924315	0.140024	-0.212877	0.260456	0.111146	-0.144976	0.228159	0
1.17	-0.0887867	-0.0911133	0.924878	0.119811	-0.22705	0.262924	0.0899812	-0.157314	0.232342	0
1.18	-0.107925	-0.0971011	0.923347	0.143846	-0.22306	0.266938	0.115847	-0.156206	0.235071	0
1.19	-0.108364	-0.100681	0.922768	0.148703	-0.230308	0.271001	0.12288	-0.167084	0.239316	0
1.2	-0.107911	-0.103861	0.922274	0.151378	-0.236228	0.274039	0.126157	-0.173219	0.241846	0
1.21	-0.106145	-0.106435	0.921771	0.150307	-0.238627	0.27679	0.127661	-0.180859	0.246645	0
1.22	-0.103979	-0.108839	0.921235	0.14893	-0.241502	0.280688	0.129889	-0.191035	0.253188	0
1.23	-0.102221	-0.111405	0.920667	0.148458	-0.244976	0.283991	0.133662	-0.203069	0.259141	0
1.24	-0.0994407	-0.113886	0.920222	0.147052	-0.249092	0.287125	0.135798	-0.214117	0.264564	0
1.25	-0.0968821	-0.116554	0.919865	0.144779	-0.250874	0.289369	0.138548	-0.225861	0.267538	0
1.26	-0.0946285	-0.119333	0.919477	0.143373	-0.254379	0.291878	0.143531	-0.240478	0.272511	0
